<mxfile host="app.diagrams.net" modified="2024-04-05T07:06:21.233Z" agent="Mozilla/5.0 (Windows NT 10.0; Win64; x64) AppleWebKit/537.36 (KHTML, like Gecko) Chrome/123.0.0.0 Safari/537.36" etag="JvlaJfNTZ1jl5uRRAFGA" version="24.2.2" type="github">
  <diagram id="xMoV9duro1yXs4Go5FBP" name="Page-2">
    <mxGraphModel dx="2702" dy="1982" grid="1" gridSize="10" guides="1" tooltips="1" connect="1" arrows="1" fold="1" page="1" pageScale="1" pageWidth="850" pageHeight="1100" math="0" shadow="0">
      <root>
        <mxCell id="0" />
        <mxCell id="1" parent="0" />
        <mxCell id="1uTlGZfkDGob9IW4ZmoJ-2" value="" style="edgeStyle=orthogonalEdgeStyle;rounded=0;orthogonalLoop=1;jettySize=auto;html=1;" edge="1" parent="1" source="e4-4uiTRGODuYrEW3L3r-1">
          <mxGeometry relative="1" as="geometry">
            <mxPoint x="-1630" y="-949.9999999999999" as="targetPoint" />
          </mxGeometry>
        </mxCell>
        <mxCell id="e4-4uiTRGODuYrEW3L3r-1" value="Start" style="strokeWidth=2;html=1;shape=mxgraph.flowchart.start_1;whiteSpace=wrap;" vertex="1" parent="1">
          <mxGeometry x="-1680" y="-1060" width="100" height="50" as="geometry" />
        </mxCell>
        <mxCell id="1uTlGZfkDGob9IW4ZmoJ-5" value="" style="edgeStyle=orthogonalEdgeStyle;rounded=0;orthogonalLoop=1;jettySize=auto;html=1;" edge="1" parent="1" source="1uTlGZfkDGob9IW4ZmoJ-3" target="1uTlGZfkDGob9IW4ZmoJ-4">
          <mxGeometry relative="1" as="geometry" />
        </mxCell>
        <mxCell id="1uTlGZfkDGob9IW4ZmoJ-3" value="b1 = 60&lt;div&gt;b2 = 40&lt;/div&gt;&lt;div&gt;b3 = 100&lt;/div&gt;&lt;div&gt;b4 = 20&lt;/div&gt;" style="shape=hexagon;perimeter=hexagonPerimeter2;whiteSpace=wrap;html=1;fixedSize=1;" vertex="1" parent="1">
          <mxGeometry x="-1690" y="-950" width="130" height="80" as="geometry" />
        </mxCell>
        <mxCell id="1uTlGZfkDGob9IW4ZmoJ-9" value="tidak" style="edgeStyle=orthogonalEdgeStyle;rounded=0;orthogonalLoop=1;jettySize=auto;html=1;" edge="1" parent="1" source="1uTlGZfkDGob9IW4ZmoJ-4" target="1uTlGZfkDGob9IW4ZmoJ-8">
          <mxGeometry relative="1" as="geometry" />
        </mxCell>
        <mxCell id="1uTlGZfkDGob9IW4ZmoJ-14" value="" style="edgeStyle=orthogonalEdgeStyle;rounded=0;orthogonalLoop=1;jettySize=auto;html=1;" edge="1" parent="1" source="1uTlGZfkDGob9IW4ZmoJ-4">
          <mxGeometry relative="1" as="geometry">
            <mxPoint x="-1405" y="-790" as="targetPoint" />
          </mxGeometry>
        </mxCell>
        <mxCell id="1uTlGZfkDGob9IW4ZmoJ-11" value="tidak" style="edgeStyle=orthogonalEdgeStyle;rounded=0;orthogonalLoop=1;jettySize=auto;html=1;" edge="1" parent="1" source="1uTlGZfkDGob9IW4ZmoJ-8" target="1uTlGZfkDGob9IW4ZmoJ-10">
          <mxGeometry relative="1" as="geometry" />
        </mxCell>
        <mxCell id="1uTlGZfkDGob9IW4ZmoJ-16" value="" style="edgeStyle=orthogonalEdgeStyle;rounded=0;orthogonalLoop=1;jettySize=auto;html=1;" edge="1" parent="1" source="1uTlGZfkDGob9IW4ZmoJ-8">
          <mxGeometry relative="1" as="geometry">
            <mxPoint x="-1195" y="-790" as="targetPoint" />
          </mxGeometry>
        </mxCell>
        <mxCell id="1uTlGZfkDGob9IW4ZmoJ-8" value="(b2 &amp;gt; b1) and&lt;div&gt;(b2 &amp;gt; b3) and&lt;/div&gt;&lt;div&gt;(b2 &amp;gt; b4)&lt;/div&gt;" style="rhombus;whiteSpace=wrap;html=1;" vertex="1" parent="1">
          <mxGeometry x="-1270" y="-950" width="150" height="80" as="geometry" />
        </mxCell>
        <mxCell id="1uTlGZfkDGob9IW4ZmoJ-18" value="" style="edgeStyle=orthogonalEdgeStyle;rounded=0;orthogonalLoop=1;jettySize=auto;html=1;" edge="1" parent="1" source="1uTlGZfkDGob9IW4ZmoJ-10">
          <mxGeometry relative="1" as="geometry">
            <mxPoint x="-985" y="-790" as="targetPoint" />
          </mxGeometry>
        </mxCell>
        <mxCell id="1uTlGZfkDGob9IW4ZmoJ-22" value="tidak" style="edgeStyle=orthogonalEdgeStyle;rounded=0;orthogonalLoop=1;jettySize=auto;html=1;" edge="1" parent="1" source="1uTlGZfkDGob9IW4ZmoJ-10" target="1uTlGZfkDGob9IW4ZmoJ-21">
          <mxGeometry relative="1" as="geometry" />
        </mxCell>
        <mxCell id="1uTlGZfkDGob9IW4ZmoJ-10" value="(b2 &amp;gt; b1) and&amp;nbsp;&lt;div&gt;(b2 &amp;gt; b3) and&amp;nbsp;&lt;/div&gt;&lt;div&gt;(b2 &amp;gt; b4)&amp;nbsp;&lt;/div&gt;" style="rhombus;whiteSpace=wrap;html=1;" vertex="1" parent="1">
          <mxGeometry x="-1060" y="-950" width="150" height="80" as="geometry" />
        </mxCell>
        <mxCell id="1uTlGZfkDGob9IW4ZmoJ-25" value="" style="edgeStyle=orthogonalEdgeStyle;rounded=0;orthogonalLoop=1;jettySize=auto;html=1;" edge="1" parent="1" source="1uTlGZfkDGob9IW4ZmoJ-12">
          <mxGeometry relative="1" as="geometry">
            <mxPoint x="-1400" y="-605" as="targetPoint" />
          </mxGeometry>
        </mxCell>
        <mxCell id="1uTlGZfkDGob9IW4ZmoJ-12" value="Cetak&amp;nbsp;&lt;div&gt;Bilangan Pertama b1&lt;/div&gt;&lt;div&gt;Lebih Besar&lt;/div&gt;" style="shape=parallelogram;perimeter=parallelogramPerimeter;whiteSpace=wrap;html=1;fixedSize=1;" vertex="1" parent="1">
          <mxGeometry x="-1467.5" y="-790" width="135" height="90" as="geometry" />
        </mxCell>
        <mxCell id="1uTlGZfkDGob9IW4ZmoJ-19" value="Cetak&lt;div&gt;&amp;nbsp;Bilangan Kedua b2&lt;/div&gt;&lt;div&gt;Lebih Besar&lt;/div&gt;" style="shape=parallelogram;perimeter=parallelogramPerimeter;whiteSpace=wrap;html=1;fixedSize=1;" vertex="1" parent="1">
          <mxGeometry x="-1260" y="-790" width="140" height="90" as="geometry" />
        </mxCell>
        <mxCell id="1uTlGZfkDGob9IW4ZmoJ-20" value="Cetak&amp;nbsp;&lt;div&gt;Bilangan Ketiga b3&lt;/div&gt;&lt;div&gt;Lebih Besar&lt;/div&gt;" style="shape=parallelogram;perimeter=parallelogramPerimeter;whiteSpace=wrap;html=1;fixedSize=1;" vertex="1" parent="1">
          <mxGeometry x="-1060" y="-790" width="140" height="90" as="geometry" />
        </mxCell>
        <mxCell id="1uTlGZfkDGob9IW4ZmoJ-4" value="(b1 &amp;gt; b2) and&amp;nbsp;&lt;div&gt;(b1 &amp;gt; b3) and&lt;/div&gt;&lt;div&gt;(b1 &amp;gt; b4)&lt;/div&gt;" style="rhombus;whiteSpace=wrap;html=1;" vertex="1" parent="1">
          <mxGeometry x="-1480" y="-950" width="150" height="80" as="geometry" />
        </mxCell>
        <mxCell id="1uTlGZfkDGob9IW4ZmoJ-21" value="Cetak&amp;nbsp;&lt;div&gt;Bilangan Keempat b4&lt;/div&gt;&lt;div&gt;Lebih Besar&lt;/div&gt;" style="shape=parallelogram;perimeter=parallelogramPerimeter;whiteSpace=wrap;html=1;fixedSize=1;" vertex="1" parent="1">
          <mxGeometry x="-760" y="-955" width="140" height="90" as="geometry" />
        </mxCell>
        <mxCell id="1uTlGZfkDGob9IW4ZmoJ-26" value="End" style="strokeWidth=2;html=1;shape=mxgraph.flowchart.start_1;whiteSpace=wrap;" vertex="1" parent="1">
          <mxGeometry x="-1455" y="-600" width="105" height="50" as="geometry" />
        </mxCell>
        <mxCell id="1uTlGZfkDGob9IW4ZmoJ-62" value="" style="endArrow=classic;html=1;rounded=0;" edge="1" parent="1">
          <mxGeometry width="50" height="50" relative="1" as="geometry">
            <mxPoint x="-1060" y="1060" as="sourcePoint" />
            <mxPoint x="-1060" y="1060" as="targetPoint" />
          </mxGeometry>
        </mxCell>
        <mxCell id="1uTlGZfkDGob9IW4ZmoJ-103" style="edgeStyle=orthogonalEdgeStyle;rounded=0;orthogonalLoop=1;jettySize=auto;html=1;exitX=0;exitY=1;exitDx=0;exitDy=0;" edge="1" parent="1" source="1uTlGZfkDGob9IW4ZmoJ-67">
          <mxGeometry relative="1" as="geometry">
            <mxPoint x="-1340" y="-580.1904761904763" as="targetPoint" />
            <Array as="points">
              <mxPoint x="-1240" y="-580" />
              <mxPoint x="-1240" y="-580" />
            </Array>
          </mxGeometry>
        </mxCell>
        <mxCell id="1uTlGZfkDGob9IW4ZmoJ-67" value="" style="shape=partialRectangle;whiteSpace=wrap;html=1;bottom=0;top=0;fillColor=none;" vertex="1" parent="1">
          <mxGeometry x="-1200" y="-700" width="210" height="120" as="geometry" />
        </mxCell>
        <mxCell id="1uTlGZfkDGob9IW4ZmoJ-100" value="" style="endArrow=none;html=1;rounded=0;entryX=1;entryY=1;entryDx=0;entryDy=0;" edge="1" parent="1" target="1uTlGZfkDGob9IW4ZmoJ-67">
          <mxGeometry width="50" height="50" relative="1" as="geometry">
            <mxPoint x="-1200" y="-580" as="sourcePoint" />
            <mxPoint x="-1150" y="-630" as="targetPoint" />
            <Array as="points">
              <mxPoint x="-1080" y="-580" />
              <mxPoint x="-990" y="-580" />
            </Array>
          </mxGeometry>
        </mxCell>
        <mxCell id="1uTlGZfkDGob9IW4ZmoJ-104" value="" style="endArrow=none;html=1;rounded=0;entryX=0.574;entryY=1.015;entryDx=0;entryDy=0;entryPerimeter=0;" edge="1" parent="1" target="1uTlGZfkDGob9IW4ZmoJ-21">
          <mxGeometry width="50" height="50" relative="1" as="geometry">
            <mxPoint x="-680" y="-580" as="sourcePoint" />
            <mxPoint x="-680" y="-860" as="targetPoint" />
          </mxGeometry>
        </mxCell>
        <mxCell id="1uTlGZfkDGob9IW4ZmoJ-105" value="" style="endArrow=none;html=1;rounded=0;" edge="1" parent="1">
          <mxGeometry width="50" height="50" relative="1" as="geometry">
            <mxPoint x="-997.14" y="-580" as="sourcePoint" />
            <mxPoint x="-680" y="-580" as="targetPoint" />
          </mxGeometry>
        </mxCell>
      </root>
    </mxGraphModel>
  </diagram>
</mxfile>
